<?xml version="1.0" encoding="iso-8859-1"?>
<!-- Generator: Adobe Illustrator 16.0.0, SVG Export Plug-In . SVG Version: 6.00 Build 0)  -->
<!DOCTYPE svg PUBLIC "-//W3C//DTD SVG 1.1//EN" "http://www.w3.org/Graphics/SVG/1.1/DTD/svg11.dtd">
<svg version="1.1" id="&#x56FE;&#x5C42;_1" xmlns="http://www.w3.org/2000/svg" xmlns:xlink="http://www.w3.org/1999/xlink" x="0px"
	 y="0px" width="195px" height="13.626px" viewBox="0 0 195 13.626" style="enable-background:new 0 0 195 13.626;"
	 xml:space="preserve">
<path style="fill:#727171;" d="M0,10.925c0,0,73.544-4.873,89.375-5.25s28.625-1.625,83.875-2C157.125,2.55,115.5,2.3,86,3.675
	S0,10.925,0,10.925z"/>
<path style="fill:#727171;" d="M21.477,12.887c0,0-0.483-1.625-0.684-2.391c-0.204-0.78-0.369-1.573-0.385-2.382
	c-0.019-0.967,0.12-1.941,0.286-2.893c0.111-0.64,0.262-1.699,0.949-1.997c1.172-0.508,3.145,0.447,4.113,1.129
	c0.784,0.552,1.437,1.274,2.11,1.962c0.593,0.605,1.344,1.413,2.237,1.51c0.57,0.062,0.891-0.417,1.16-0.848
	c0.604-0.968,0.921-2.124,1.625-3.03c0.786-1.014,1.594-1.354,2.747-1.417c2.989-0.163,2.951,3.342,5.334,4.188
	c0.994,0.354,1.621-0.906,1.983-1.602c0.387-0.743,0.711-1.437,1.267-2.076c0.729-0.841,1.62-2.021,2.588-2.59
	c0.878-0.516,2.367-0.617,3.281-0.167c0.997,0.491,1.354,1.816,1.791,2.754c0.24,0.515,0.348,0.991,0.753,1.414
	c0.619,0.647,1.202,1.3,1.884,0.438c0.647-0.819,1.09-1.773,1.693-2.622c0.781-1.098,1.952-2.335,3.485-1.983
	c1.397,0.321,2.261,0.719,3.235,1.771c0.564,0.611,1.785,1.873,2.755,1.449c0.686-0.3,1.226-0.658,1.653-1.275
	c0.362-0.522,1.329-1.154,1.91-1.473c1.409-0.774,2.612-0.546,3.983,0.16c0.841,0.433,1.526,1.189,2.398,1.542
	c0.521,0.21,1.281,0.504,1.841,0.481c0.825-0.033,1.741-0.365,2.55-0.537c1.1-0.233,2.306-0.714,3.419-0.555
	c1.492,0.213,3.025,0.339,4.401,1.032c0.076,0.039,0.17,0.058,0.252,0.085c-0.446-0.148-1.445,0.196-1.931,0.27
	c-0.738,0.111-1.472,0.255-2.201,0.414c-2.313,0.503-4.995,1.628-7.381,1.106c-1.111-0.244-2.428-0.438-3.27-1.275
	c-0.486-0.483-0.748-1.537-1.548-1.582c-0.605-0.034-1.116,0.633-1.49,1.019c-0.738,0.76-1.617,1.468-2.618,1.843
	c-1.418,0.531-3.562,0.53-4.948-0.211c-1.135-0.607-1.322-2.233-2.658-2.555c-1.033-0.249-2.054,2.163-2.455,2.787
	c-0.51,0.793-0.949,1.717-1.669,2.349c-0.882,0.773-2.379,0.542-3.411,0.289c-1.874-0.459-2.378-1.97-2.602-3.698
	c-0.058-0.45,0.017-1.109-0.368-1.434C49.246,2.036,48.426,2,48.155,2.334c-0.217,0.267-0.277,0.854-0.396,1.182
	c-0.225,0.621-0.467,1.23-0.819,1.791c-0.298,0.473-0.644,1.42-1.095,1.754c-0.748,0.554-1.346,1.166-2.236,1.493
	c-1.22,0.447-2.979,0.86-4.219,0.317c-2.026-0.89-1.836-4.434-4.737-3.405c-1.396,0.496-0.962,2.09-1.725,3.106
	c-0.46,0.613-1.266,1.215-2.001,1.281c-0.893,0.082-1.814,0.088-2.646-0.293c-0.534-0.243-1.049-0.272-1.617-0.756
	c-0.568-0.482-0.683-1.258-1.173-1.918c-0.604-0.814-1.512-1.144-2.188-0.772c-0.789,0.435-0.388,2.058-0.535,2.812
	c-0.129,0.655-0.471,1.582-0.631,2.23C21.982,11.777,21.477,12.887,21.477,12.887z"/>
<path style="fill:#727171;" d="M63.416,10.467c-0.25-0.833,17.613-1.654,26.864-2.042s33.908-1.042,46.032-1.438S195,6.05,195,6.05
	l-81.167,2.834c0,0-37.125,1.604-41.209,1.604S63.666,11.3,63.416,10.467z"/>
<path style="fill:#727171;" d="M135.313,9.211c2.19,1.858,4.054,4.2,7.135,4.406c4.615,0.308,4.137-7.801,5.678-6.067
	c0.5,0.563-0.717,4.28,0.313,5c1.5,1.049,4.158-1.005,5.031-1.637c0.939-0.678,1.53-2.492,2.781-2.238
	c1.141,0.232,1.5,3,2.438,3.813s2.336,0.824,3.44,0.57c1.116-0.257,1.747-2.32,1.747-2.32s1.321-2.615,2.188-2.688
	c1.5-0.125,1.999,1.795,2.48,2.352c0.608,0.705,1.411,1.83,2.427,1.938c0.952,0.1,1.619-0.811,2.176-1.442
	c0.727-0.825,1.163-2.78,2.229-3.159c1.03-0.366,2.439,0.88,3.508,0.932c2.294,0.111,4.455-0.376,6.597-1.183
	c0.441-0.166,1.756-0.539,1.822-1.149c0.075-0.69-6.404,1.042-8.851,0.307c-1.02-0.306-1.851-1.138-2.897-1.345
	c-1.346-0.266-1.342,0.337-1.991,1.34c-0.526,0.813-1.32,3.132-2.316,3.128s-1.895-0.714-2.184-1.719
	c-0.309-1.075-0.886-2.493-2.063-2.784c-3.042-0.753-2.846,2.54-4.75,3.937c-3.104,2.273-2.892-2.708-4.518-3.853
	c-2.253-1.587-4.411,3.033-5.584,4.205c-0.547,0.547-2.081,2.168-2.711,1.371c-0.472-0.597,0.293-2.556,0.309-3.259
	c0.03-1.452-0.359-3.151-2.226-2.853c-3.223,0.514-1.513,6.217-4.894,6.225c-1.767,0.004-2.688-1.845-3.685-3.007
	c-1.006-1.173-3.914-3.378-5.465-1.997c-0.494,0.44-0.62,0.794-0.415,1.42C133.275,8.094,134.798,8.774,135.313,9.211z"/>
</svg>
